ply
format ascii 1.0
element vertex 24
property float x
property float y
property float z
property float nx
property float ny
property float nz
property float s
property float t
element face 12
property list uchar int vertex_index
end_header
25 50 25 1 0 0 0 1
25 50 -25 1 0 0 1 1
25 0 25 1 0 0 0 0
25 0 -25 1 0 0 1 0
-25 50 -25 -1 0 0 0 1
-25 50 25 -1 0 0 1 1
-25 0 -25 -1 0 0 0 0
-25 0 25 -1 0 0 1 0
-25 50 -25 0 1 0 0 1
25 50 -25 0 1 0 1 1
-25 50 25 0 1 0 0 0
25 50 25 0 1 0 1 0
-25 0 25 0 -1 0 0 1
25 0 25 0 -1 0 1 1
-25 0 -25 0 -1 0 0 0
25 0 -25 0 -1 0 1 0
-25 50 25 0 0 1 0 1
25 50 25 0 0 1 1 1
-25 0 25 0 0 1 0 0
25 0 25 0 0 1 1 0
25 50 -25 0 0 -1 0 1
-25 50 -25 0 0 -1 1 1
25 0 -25 0 0 -1 0 0
-25 0 -25 0 0 -1 1 0
3 0 2 1
3 2 3 1
3 4 6 5
3 6 7 5
3 8 10 9
3 10 11 9
3 12 14 13
3 14 15 13
3 16 18 17
3 18 19 17
3 20 22 21
3 22 23 21

